<svg xmlns="http://www.w3.org/2000/svg" aria-hidden="true" style="position:absolute;width:0;height:0;overflow:hidden"><defs><symbol id="apple" viewBox="0 0 27 32"><path d="M20.372 7.314c-2.881 0-4.098 1.384-6.104 1.384-2.057 0-3.626-1.374-6.122-1.374-2.443 0-5.049 1.502-6.704 4.061-2.323 3.608-1.929 10.404 1.834 16.193C4.622 29.65 6.419 31.975 8.777 32h.043c2.049 0 2.658-1.351 5.478-1.367h.043c2.778 0 3.335 1.359 5.375 1.359h.043c2.358-.025 4.252-2.6 5.598-4.665.969-1.485 1.329-2.23 2.072-3.91-5.443-2.08-6.318-9.85-.934-12.829-1.643-2.072-3.952-3.272-6.129-3.272l.007-.003zM20.055 0c-1.658.111-3.593 1.148-4.726 2.502-1.028 1.227-1.874 3.047-1.542 4.813h.133c1.766 0 3.573-1.045 4.629-2.383 1.017-1.274 1.788-3.079 1.506-4.931z"/></symbol><symbol id="mark" viewBox="0 0 18 32"><path d="M.914 26.286 11.2 16 .914 5.714 2.971 1.6l14.4 14.4-14.4 14.4-2.057-4.114z"/></symbol><symbol id="linkedin" viewBox="0 0 32 32"><path d="M7.409 31.111H.959V10.34h6.45v20.771zM4.18 7.507C2.118 7.507.444 5.798.444 3.736a3.735 3.735 0 0 1 7.47 0c0 2.062-1.673 3.771-3.736 3.771zm27.369 23.604h-6.436V21c0-2.41-.049-5.5-3.353-5.5-3.353 0-3.868 2.618-3.868 5.327v10.284h-6.443V10.34h6.186v2.833h.09c.861-1.632 2.964-3.354 6.102-3.354 6.528 0 7.728 4.299 7.728 9.882v11.41h-.006z"/></symbol><symbol id="twitter" viewBox="0 0 38 32"><path d="M38.045 1.066a17.994 17.994 0 0 1-5.176 2.522 7.38 7.38 0 0 0-8.206-2.053 7.38 7.38 0 0 0-4.751 6.999v1.649A17.57 17.57 0 0 1 5.076 2.716s-6.594 14.836 8.242 21.43a19.191 19.191 0 0 1-11.539 3.297c14.836 8.242 32.97 0 32.97-18.958a7.477 7.477 0 0 0-.132-1.368 12.72 12.72 0 0 0 3.429-6.05z"/></symbol><symbol id="facebook" viewBox="0 0 18 32"><path d="M17.778 1.185h-4.444a7.41 7.41 0 0 0-7.408 7.408v4.444H1.482v5.926h4.444v11.852h5.926V18.963h4.444l1.482-5.926h-5.926V8.593a1.482 1.482 0 0 1 1.482-1.482h4.444V1.185z"/></symbol><symbol id="file-load" viewBox="0 0 24 32"><path d="M14.088 8.5V0H1.509C.673 0 0 .669 0 1.5v29c0 .831.673 1.5 1.509 1.5h21.132c.836 0 1.509-.669 1.509-1.5V10h-8.553c-.83 0-1.509-.675-1.509-1.5zm4.808 13.21-6.064 5.981a1.077 1.077 0 0 1-1.512 0L5.256 21.71c-.638-.629-.191-1.71.708-1.71h4.099v-5c0-.553.45-1 1.006-1h2.013c.556 0 1.006.447 1.006 1v5h4.099c.898 0 1.346 1.081.709 1.71zm4.815-15.147L17.554.438A1.515 1.515 0 0 0 16.485 0h-.384v8h8.05v-.381c0-.394-.157-.775-.44-1.056z"/></symbol><symbol id="mark-2" viewBox="0 0 27 32"><path d="M3.278 31.378a1.556 1.556 0 0 0 1.607-.1l20.222-14a1.551 1.551 0 0 0 .67-1.279 1.555 1.555 0 0 0-.67-1.279L4.885.72A1.553 1.553 0 0 0 3.278.622a1.552 1.552 0 0 0-.834 1.377v28a1.555 1.555 0 0 0 .834 1.378z"/></symbol><symbol id="file" viewBox="0 0 25 32"><path d="M23.838 8.485c.202.202.316.475.316.761V30c0 .596-.481 1.077-1.077 1.077H1.539A1.075 1.075 0 0 1 .462 30V2c0-.596.481-1.077 1.077-1.077h14.293c.286 0 .562.114.764.316l7.242 7.246zM21.67 9.74l-6.334-6.334V9.74h6.334zM5.846 14.99c-.071 0-.14.028-.19.079s-.079.119-.079.19v1.615c0 .072.028.14.079.19s.119.079.19.079h12.923c.071 0 .14-.028.19-.079s.079-.119.079-.19v-1.615c0-.071-.028-.14-.079-.19s-.119-.079-.19-.079H5.846zm0 4.577c-.071 0-.14.028-.19.079s-.079.119-.079.19v1.615c0 .071.028.14.079.19s.119.079.19.079h6.192c.071 0 .14-.028.19-.079s.079-.119.079-.19v-1.615c0-.071-.028-.14-.079-.19s-.119-.079-.19-.079H5.846z"/></symbol><symbol id="license" viewBox="0 0 25 32"><path d="M15.158 0H4.572a4.003 4.003 0 0 0-4 4v24a4.003 4.003 0 0 0 4 4h16a4.003 4.003 0 0 0 4-4V9.414A2 2 0 0 0 23.986 8L16.572.586A2 2 0 0 0 15.158 0zm.413 7V3l6 6h-4a2 2 0 0 1-2-2zm-8-1V4h-2V2h3v2h2v2h-2v2h2v2h-2v2h2v2h-3v-2h-2v-2h2V8h-2V6h2zm0 9h2a2 2 0 0 1 2 2v1.876l.8 3.198a1.998 1.998 0 0 1-.832 2.148l-1.86 1.24a1.997 1.997 0 0 1-2.218 0l-1.86-1.24a2.005 2.005 0 0 1-.83-2.149l.8-3.198v-1.876a2 2 0 0 1 2-2z"/></symbol><symbol id="calendar" viewBox="0 0 29 32"><path d="M28.667 28.445V6.667a3.114 3.114 0 0 0-3.111-3.111h-3.111V.445h-3.111v3.111h-9.333V.445H6.89v3.111H3.779A3.114 3.114 0 0 0 .668 6.667v21.778a3.114 3.114 0 0 0 3.111 3.111h21.778a3.114 3.114 0 0 0 3.111-3.111zM10 25.333H6.889v-3.111H10v3.111zm0-6.222H6.889V16H10v3.111zm6.222 6.222h-3.111v-3.111h3.111v3.111zm0-6.222h-3.111V16h3.111v3.111zm6.222 6.222h-3.111v-3.111h3.111v3.111zm0-6.222h-3.111V16h3.111v3.111zm3.112-7.778H3.778V8.222h21.778v3.111z"/></symbol><symbol id="user" viewBox="0 0 32 32"><path d="M27.576 25.617A15.067 15.067 0 0 0 13.99 1.054 15.065 15.065 0 0 0 .925 16a14.97 14.97 0 0 0 3.501 9.617l-.022.018c.075.09.162.168.239.257.097.111.201.215.302.323.302.327.612.642.937.937.099.09.201.175.302.261.345.297.699.579 1.066.842.047.032.09.074.138.108v-.013a14.969 14.969 0 0 0 17.23 0v.013c.047-.033.089-.075.138-.108.366-.264.721-.545 1.066-.842.1-.086.202-.171.302-.261.325-.296.635-.609.937-.937.1-.108.204-.212.302-.323.076-.089.164-.167.239-.258l-.024-.017zM16 7.385a4.84 4.84 0 0 1 4.477 2.992 4.845 4.845 0 1 1-9.323 1.854A4.843 4.843 0 0 1 16 7.385zM7.392 25.617a5.381 5.381 0 0 1 5.377-5.31h6.462a5.379 5.379 0 0 1 5.377 5.31 12.861 12.861 0 0 1-17.216 0z"/></symbol><symbol id="globe" viewBox="0 0 32 32"><path d="M16 31.556c-2.126 0-4.135-.409-6.028-1.226a15.745 15.745 0 0 1-4.958-3.345 15.755 15.755 0 0 1-3.344-4.957A15.049 15.049 0 0 1 .444 16c0-2.152.409-4.167 1.226-6.046a15.824 15.824 0 0 1 3.344-4.939 15.77 15.77 0 0 1 4.958-3.346C11.865.853 13.874.445 16 .445c2.152 0 4.167.408 6.047 1.224a15.846 15.846 0 0 1 4.939 3.346 15.815 15.815 0 0 1 3.345 4.939c.817 1.879 1.226 3.895 1.226 6.046 0 2.126-.409 4.135-1.226 6.028a15.73 15.73 0 0 1-3.345 4.957 15.815 15.815 0 0 1-4.939 3.345c-1.879.817-3.895 1.226-6.047 1.226zm0-3.189c.674-.933 1.257-1.905 1.75-2.917s.895-2.087 1.206-3.228h-5.911c.311 1.141.713 2.217 1.206 3.228s1.076 1.983 1.75 2.917zm-4.044-.622a21.362 21.362 0 0 1-1.224-2.665 22.725 22.725 0 0 1-.876-2.858H5.267a12.904 12.904 0 0 0 2.819 3.383 11.206 11.206 0 0 0 3.87 2.139zm8.089 0c1.452-.467 2.741-1.18 3.869-2.139s2.068-2.087 2.82-3.383h-4.589a22.937 22.937 0 0 1-.874 2.858 21.665 21.665 0 0 1-1.226 2.665zm-16.1-8.634h5.289a21.998 21.998 0 0 1-.176-1.537 20.984 20.984 0 0 1 .176-4.685H3.945a13.29 13.29 0 0 0-.292 1.537c-.064.505-.096 1.03-.096 1.574s.032 1.069.096 1.574c.065.506.163 1.018.292 1.537zm8.4 0h7.311c.078-.519.136-1.031.176-1.537a20.984 20.984 0 0 0-.176-4.685h-7.311a20.838 20.838 0 0 0 0 6.222zm10.422 0h5.289A12.516 12.516 0 0 0 28.445 16a12.331 12.331 0 0 0-.389-3.111h-5.289a20.838 20.838 0 0 1 0 6.222zm-.622-9.333h4.589c-.752-1.296-1.692-2.424-2.82-3.383s-2.417-1.672-3.869-2.139c.467.856.875 1.743 1.226 2.663.349.921.641 1.874.874 2.859zm-9.101 0h5.911c-.311-1.141-.713-2.217-1.206-3.228s-1.076-1.983-1.75-2.917c-.674.933-1.257 1.906-1.75 2.917s-.894 2.087-1.206 3.228zm-7.777 0h4.589c.233-.985.525-1.938.876-2.859a21.48 21.48 0 0 1 1.224-2.663 11.206 11.206 0 0 0-3.87 2.139 12.924 12.924 0 0 0-2.819 3.383z"/></symbol><symbol id="size" viewBox="0 0 32 32"><path d="M29.754 28.067a3.393 3.393 0 0 1-3.388 3.205H5.636a3.392 3.392 0 0 1-3.388-3.205L.929 4.309a3.4 3.4 0 0 1 2.046-3.305c.424-.183.88-.277 1.342-.277h23.371a3.384 3.384 0 0 1 2.465 1.062 3.385 3.385 0 0 1 .923 2.521l-1.32 23.758zm-5.062-17.345c.696-.458.871-1.367.299-1.958-.969-1-2.101-1.826-3.347-2.445a12.938 12.938 0 0 0-5.564-1.347 12.975 12.975 0 0 0-5.609 1.173 12.3 12.3 0 0 0-3.432 2.338c-.591.574-.45 1.487.23 1.967l3.659 2.585c.679.48 1.636.325 2.339-.123a4.898 4.898 0 0 1 2.555-.751l2.879-3.31a.85.85 0 0 1 1.4.178.848.848 0 0 1-.119.935l-2.233 2.567c.303.125.591.281.862.465.687.469 1.638.653 2.333.195l3.748-2.468z"/></symbol><symbol id="load" viewBox="0 0 32 32"><path d="M13.5 0h5c.831 0 1.5.669 1.5 1.5V12h5.481c1.112 0 1.669 1.344.881 2.131l-9.506 9.513a1.21 1.21 0 0 1-1.706 0l-9.519-9.513C4.844 13.344 5.4 12 6.512 12H12V1.5c0-.831.669-1.5 1.5-1.5zM32 23.5v7c0 .831-.669 1.5-1.5 1.5h-29C.669 32 0 31.331 0 30.5v-7c0-.831.669-1.5 1.5-1.5h9.169l3.062 3.063a3.204 3.204 0 0 0 4.538 0L21.331 22H30.5c.831 0 1.5.669 1.5 1.5zM24.25 29c0-.688-.563-1.25-1.25-1.25s-1.25.563-1.25 1.25c0 .688.563 1.25 1.25 1.25s1.25-.563 1.25-1.25zm4 0c0-.688-.563-1.25-1.25-1.25s-1.25.563-1.25 1.25c0 .688.563 1.25 1.25 1.25s1.25-.563 1.25-1.25z"/></symbol><symbol id="desk" viewBox="0 0 35 32"><path d="M31.34.451h-28A3.119 3.119 0 0 0 .229 3.562v18.667A3.119 3.119 0 0 0 3.34 25.34h10.889v3.111h-3.111v3.111h12.444v-3.111h-3.111V25.34H31.34a3.123 3.123 0 0 0 3.111-3.111V3.562A3.123 3.123 0 0 0 31.34.451zM15.398 18.598h-.001l-7.389-7.389 2.201-2.198 5.189 5.189 9.077-9.078 2.201 2.201-11.278 11.275z"/></symbol><symbol id="burger" viewBox="0 0 52 32"><path stroke-linecap="round" stroke-width="4" d="M2 2h48M2 16h48M2 30h48"/></symbol><symbol id="android" viewBox="0 0 28 32"><path d="M5.26 24.204c0 .836.708 1.518 1.578 1.518h1.804v4.3c0 1.089.908 1.979 2.023 1.979 1.119 0 2.023-.886 2.023-1.979v-4.303h3.149v4.3c0 1.089.908 1.979 2.023 1.979 1.119 0 2.023-.886 2.023-1.979v-4.3h1.804c.871 0 1.578-.682 1.578-1.518V10.087H5.26v14.117zM18.49 2.773 20.153.452c.096-.136.074-.318-.056-.407-.13-.086-.315-.043-.411.093L17.96 2.552c-1.137-.432-2.404-.671-3.734-.671s-2.597.239-3.734.671L8.766.141C8.67.005 8.484-.041 8.355.048c-.13.086-.152.264-.056.407l1.663 2.321C7.317 3.962 5.465 6.208 5.227 8.833h18.005c-.245-2.628-2.101-4.875-4.742-6.06zm-8.065 3.66c-.197 0-.39-.056-.554-.162s-.292-.256-.367-.431a.936.936 0 0 1 .216-1.047 1.03 1.03 0 0 1 1.086-.208.989.989 0 0 1 .447.354.934.934 0 0 1-.125 1.213 1.02 1.02 0 0 1-.704.282zm7.72 0c-.197 0-.39-.056-.554-.162s-.292-.256-.367-.431a.936.936 0 0 1 .216-1.047 1.03 1.03 0 0 1 1.086-.208c.182.073.338.196.447.354s.168.344.168.534c-.001.255-.106.499-.293.679s-.44.281-.704.282zm8.276 3.597c-1.119 0-2.023.886-2.023 1.979v7.728c0 1.089.908 1.979 2.023 1.979 1.119 0 2.023-.886 2.023-1.979v-7.732c.004-1.093-.9-1.975-2.023-1.975zm-24.399 0c-1.119 0-2.023.886-2.023 1.979v7.728c0 1.089.908 1.979 2.023 1.979 1.119 0 2.023-.886 2.023-1.979v-7.732c0-1.093-.908-1.975-2.023-1.975z"/></symbol><symbol id="close" viewBox="0 0 32 32"><path d="M28.614 1.13 16 13.744 3.386 1.13a1.594 1.594 0 0 0-2.207.049 1.596 1.596 0 0 0-.049 2.207L13.738 16 1.127 28.611a1.6 1.6 0 0 0-.029 2.284 1.579 1.579 0 0 0 1.147.468 1.616 1.616 0 0 0 1.137-.493L16 18.259l12.614 12.614a1.6 1.6 0 0 0 2.207-.049 1.596 1.596 0 0 0 .049-2.207L18.256 16.003 30.87 3.385a1.6 1.6 0 0 0 .029-2.284 1.579 1.579 0 0 0-1.147-.468 1.601 1.601 0 0 0-1.137.494v.003z"/></symbol></defs></svg>